<svg width="1200" height="720" viewBox="0 0 1200 720" fill="none" xmlns="http://www.w3.org/2000/svg">
  <rect width="1200" height="720" rx="40" fill="#121212"/>
  <circle cx="170" cy="150" r="120" fill="#FDE68A" fill-opacity="0.12"/>
  <circle cx="1020" cy="120" r="160" fill="#22C55E" fill-opacity="0.10"/>
  <circle cx="970" cy="590" r="200" fill="#FDE68A" fill-opacity="0.08"/>
  <path d="M0 520C150 450 250 600 390 540C540 474 650 350 780 400C920 454 990 610 1200 520V720H0V520Z" fill="#1C1C1C"/>
  <path d="M0 570C180 500 280 650 430 590C590 526 660 430 810 470C960 510 1040 650 1200 580V720H0V570Z" fill="#171717"/>
  <g opacity="0.9">
    <rect x="90" y="92" width="210" height="52" rx="26" fill="#FDE68A" fill-opacity="0.12" stroke="#FDE68A" stroke-opacity="0.35"/>
    <text x="195" y="125" text-anchor="middle" fill="#FDE68A" font-family="JetBrains Mono, monospace" font-size="22" font-weight="700" letter-spacing="2">COMUNIDADES</text>
  </g>
  <text x="90" y="235" fill="#FFF7D6" font-family="JetBrains Mono, monospace" font-size="72" font-weight="800" letter-spacing="2">TryCatch.tv</text>
  <text x="90" y="295" fill="#E5E7EB" font-family="JetBrains Mono, monospace" font-size="36" font-weight="600" letter-spacing="1">Próximas ciudades</text>
  <text x="90" y="345" fill="#CBD5E1" font-family="JetBrains Mono, monospace" font-size="24" font-weight="400">Bogotá • Medellín • y más ciudades pronto</text>
  <g transform="translate(90 420)">
    <rect width="240" height="88" rx="18" fill="#1F2937" stroke="#374151"/>
    <text x="24" y="36" fill="#FDE68A" font-family="JetBrains Mono, monospace" font-size="20" font-weight="700">Eventos</text>
    <text x="24" y="62" fill="#E5E7EB" font-family="JetBrains Mono, monospace" font-size="16" font-weight="400">Encuentros, fotos y crónicas</text>
  </g>
  <g transform="translate(350 420)">
    <rect width="240" height="88" rx="18" fill="#1F2937" stroke="#374151"/>
    <text x="24" y="36" fill="#FDE68A" font-family="JetBrains Mono, monospace" font-size="20" font-weight="700">Novedades</text>
    <text x="24" y="62" fill="#E5E7EB" font-family="JetBrains Mono, monospace" font-size="16" font-weight="400">Lanzamientos y noticias tech</text>
  </g>
  <g transform="translate(610 420)">
    <rect width="240" height="88" rx="18" fill="#1F2937" stroke="#374151"/>
    <text x="24" y="36" fill="#FDE68A" font-family="JetBrains Mono, monospace" font-size="20" font-weight="700">Ciudad</text>
    <text x="24" y="62" fill="#E5E7EB" font-family="JetBrains Mono, monospace" font-size="16" font-weight="400">Contenido local por comunidad</text>
  </g>
</svg>
